<svg xmlns="http://www.w3.org/2000/svg" version="1.1" width="300" height="280.93" viewBox="0 0 300 280.93"><title>Griffith University - Brisbane, Australia</title><g transform="matrix(1.6274866,0,0,1.6274866,-384.07383,19.916367)" fill-rule="nonzero">
<path fill="#e92d2e" d="m310.9-12.238,0,49.938,14.219,35.433,0-49.881-14.219-35.49zm34.745,0-14.219,35.49,0,49.881,14.219-35.433,0-49.938zm-56.245,16.914,0,49.881,32.05,20.526-20.468-31.075,0-31.935-11.582-7.3962zm77.746,0-11.524,7.3962,0,31.935-20.526,31.075,32.05-20.526,0-49.881zm-96.15,20.296,0,53.78,48.505,0-37.784-15.251,0-38.529-10.722,0zm103.89,0,0,38.529-37.784,15.251,48.505,0,0-53.78-10.722,0z"/>
<path fill="#e92d2e" d="m331.95,84.589c-4.6569,0-10.71,0.40872-13.971,2.3511-3.532,2.1051-3.9787,5.1814-3.9787,9.1782v1.9894h-3.8431v5.2899h3.8431v20.979h9.8564v-0.0453-20.933h8.8617,1.4468v20.979h9.9016v-21.024h10.308v21.024l9.8564-0.0453v-26.223h-20.165v-4.1596c0-2.3872,0.43766-4.2048,4.8378-4.2048,0.41053,0,1.3528,0.07596,2.1702,0.18085,0.0923-2.1395,1.2153-4.0438,2.4415-5.0638-1.2985-0.1067-2.597-0.13564-3.4362-0.13564-3.6586,0-8.6447,0.27308-11.891,2.2154-3.5447,2.1051-4.0239,5.1814-4.0239,9.1782v1.9894h-1.4468-8.8617v-4.1596c0-2.8701,1.0616-4.2048,5.6516-4.2048,0.42862,0,1.4758,0.04167,2.3511,0.13557,0.63841-1.9839,1.9442-3.8051,3.9787-5.1995-1.1267-0.07957-2.3746-0.09042-3.8883-0.09042zm-71.617,0.54255c-14.459,0-23.782,7.14-23.782,20.165,0,12.824,9.7207,19.668,21.747,19.668,4.1668,0,8.3517-0.71798,12.343-1.8085v-18.989h-9.9468v14.604c-0.75596,0.17362-1.5951,0.18085-2.3511,0.18085-8.3806,0-10.851-8.2142-10.851-15.327,0-6.9845,4.4109-11.755,12.705-11.755,3.2372,0,7.2123,0.60042,10.444,2.2154v-7.4149c-3.5718-0.95128-8.6049-1.5372-10.308-1.5372zm40.917,0.63298c-2.9226,0-5.2899,2.0545-5.2899,4.5665,0,2.5048,2.3673,4.5213,5.2899,4.5213s5.3351-2.0165,5.3351-4.5213c0-2.512-2.4126-4.5665-5.3351-4.5665zm58.234,0c-2.9352,0-5.3351,2.0545-5.3351,4.5665,0,2.5048,2.3999,4.5213,5.3351,4.5213,2.9135,0,5.2447-2.0165,5.2447-4.5213,0-2.512-2.3312-4.5665-5.2447-4.5665zm11.755,0.3617,0,11.981-3.8431,0,0,5.2899,3.8431,0,0,10.082c0,4.004,0.45574,7.111,3.9787,9.2234,3.2626,1.9387,7.2376,2.2154,10.896,2.2154,0.77223,0,2.087-0.0362,3.6622-0.13557v-5.8776c-1.87,0.34-3.5447,0.3617-3.9787,0.3617-4.7419,0-4.7021-3.2951-4.7021-7.008v-8.8617h8.6808v-5.2899h-8.6808v-11.981h-9.8564zm21.838,0,0,38.205,9.9016,0,0-16.322c0-2.7272,0.5751-4.7473,3.4362-4.7473,2.5283,0,3.4814,1.3401,3.4814,5.5612v15.508l9.8564,0.0453v-15.734c0-2.7381,0.35809-5.8379-1.5824-8.0026-2.1105-2.3981-4.9047-3.3005-8.0479-3.3005-2.512,0-5.2628,0.51362-7.1436,2.3963v-13.609h-9.9016zm-101.91,11.212c-3.6532,0-5.3098,3.3584-6.1489,6.3298v-5.6064h-9.8564v26.269h9.8564v-12.614c0-4.0438,2.2444-7.6862,5.3351-7.6862,0.96394,0,1.9658,0.22426,2.9388,0.45213v-6.9628c-0.45936-0.08681-1.436-0.18085-2.125-0.18085zm5.1542,0.76862,0,26.269,9.8564,0,0-26.269-9.8564,0z"/>
<path fill="#000" d="m363.98,135.99c-2.2796,0-4.0908,0.55658-5.5107,1.6991-1.4162,1.1297-2.1124,2.5937-2.1124,4.3626,0,1.7083,0.64292,3.1136,1.9288,4.179,0.84314,0.66312,2.2282,1.3869,4.2249,2.1584,1.9967,0.76232,3.5048,1.3281,4.179,1.7451,1.5228,0.95335,2.2502,2.0977,2.2502,3.3983,0,1.4016-0.55658,2.5698-1.5154,3.3983-0.96621,0.83029-2.3108,1.1481-4.179,1.1481-3.255,0-5.9442-2.0243-6.2455-2.2502l-1.5154,1.791c0.53086,0.46107,3.1319,2.7554,7.7609,2.7554,2.658,0,4.7521-0.62455,6.2455-1.9747,1.3667-1.2491,2.0206-2.9684,2.0206-5.0056,0-1.6826-0.68884-3.1099-2.0206-4.3167-0.81191-0.70353-1.9912-1.3795-3.582-2.0206-1.3207-0.4978-2.7627-0.97173-4.0871-1.4695-2.0463-0.94233-3.0309-2.1528-3.0309-3.582,0-1.0874,0.40779-2.0132,1.3777-2.7554,0.9754-0.74578,2.2465-1.0562,3.9953-1.0562,1.104,0,2.0243,0.15982,2.8013,0.41331,1.7212,0.5823,2.6121,1.5559,2.7554,1.6991l1.6991-1.5154c-0.36371-0.31962-1.4879-1.5265-3.6738-2.2502-1.0103-0.33432-2.2704-0.55107-3.7656-0.55107zm-127.99,0.4133,0,12.445c0,2.6286,0.0532,4.2634,0.18369,4.9137,0.25349,1.8002,0.94601,3.2017,2.0665,4.2708,1.6018,1.5522,4.2579,2.342,6.9802,2.342,2.726,0,5.3785-0.74578,6.9343-2.2502,1.0728-1.0176,1.7432-2.3916,2.0665-4.0871,0.1158-0.85416,0.18369-2.4082,0.18369-4.6841v-12.95h-2.4798l-0.046,13.134c0,1.216,0.0369,2.0463,0.046,2.4798-0.0789,2.118-0.66128,3.6683-1.6991,4.6382-1.0287,0.97172-3.0162,1.4236-4.9137,1.4236-2.0592,0-4.1624-0.51433-5.327-1.6073-0.9754-0.95152-1.4236-2.7058-1.4236-5.2352v-14.833h-2.5717zm23.604,0,0,23.604,2.4798,0,0-19.379,14.374,19.379,2.939,0,0-23.604-2.4798,0,0.046,19.655-14.557-19.655-2.8013,0zm24.844,0,0,23.604,2.6176,0,0-23.604-2.6176,0zm5.7862,0,9.0468,23.604,2.8931,0,9.1845-23.604-2.7554,0-7.8068,20.665-7.6232-20.665-2.939,0zm23.788,0,0,23.604,16.945,0,0-2.342-14.374,0,0-9.0008,12.307,0,0-2.2043-12.307,0,0-7.8068,13.639,0,0-2.2502-16.211,0zm20.619,0,0,23.604,2.5717,0,0-10.424,5.0515,0c1.9618,0,3.3046,0.31962,4.0412,1.0103,0.33799,0.32696,0.73476,0.85232,1.1481,1.6073,0.12124,0.23879,0.40963,0.85048,0.87253,1.791l2.8472,6.0159h2.6635l-3.9034-8.1283c-0.78253-1.6128-2.0665-2.985-3.0309-3.0768,1.2583-0.20389,2.715-0.99927,3.3064-1.5614,1.1646-1.0783,1.6991-2.5423,1.6991-4.3167,0-1.9434-0.67415-3.5232-2.0665-4.8219-0.84863-0.78252-1.9839-1.3281-3.4442-1.5614-0.75314-0.10287-2.0518-0.13769-3.9034-0.13769h-7.8528zm41.284,0,0,23.604,2.6176,0,0-23.604-2.6176,0zm5.8322,0,0,2.2502,7.2558,0,0,21.354,2.5257,0,0-21.354,6.7965,0,0-2.2502-16.578,0zm17.864,0,9.1386,14.052,0,9.5519,2.5258,0,0-9.5519,9.0468-14.052-2.985,0-7.2558,11.389-7.4395-11.389-3.0309,0zm-62.409,2.2043,5.7403,0c1.4162,0,2.4008,0.0698,2.985,0.18369,0.83028,0.14137,1.486,0.39493,2.0206,0.91845,0.92213,0.84498,1.4236,1.8736,1.4236,3.0768,0,1.2546-0.41146,2.2686-1.2399,3.0309-0.82109,0.75129-1.96,1.2583-3.3983,1.4695-0.68516,0.0955-1.9434,0.13769-3.7656,0.13769h-3.7656v-8.8171z"/>
</g>
</svg>